<svg id="Layer_1" enable-background="new 0 0 1024 1024" viewBox="0 0 1024 1024" xmlns="http://www.w3.org/2000/svg"><g id="XMLID_3688_"><path id="XMLID_17_" d="m156.6 195.4h710.8c30.7 0 49.2 33.9 32.7 59.7l-355.4 555.6c-15.3 23.9-50.1 23.9-65.4 0l-355.4-555.6c-16.5-25.8 2-59.7 32.7-59.7z"/><g id="XMLID_12_"><path id="XMLID_16_" d="m156.6 210.4h42.1 107.1 145.4 156.1 139.3 95 22.3 3.4 1.4c.9 0 1.7.1 2.6.2-3.2-.2-.5-.1.4.1 1.8.5 3.6 1 5.3 1.5-3-1-.5-.3.3.2 1.2.7 2.4 1.3 3.6 2.1.7.4 1.3.9 1.9 1.3-2.5-1.8-.8-.6-.3-.1 1.4 1.4 2.7 2.7 4 4.2-2.1-2.4-.4-.6.1.2s1 1.6 1.5 2.5c.4.7.7 1.4 1.1 2.1 1.6 2.9-.6-2.2.3.7.5 1.9 1.1 3.7 1.5 5.6.9 3.4.3-2 0 .1-.1.9.1 2 .1 2.9 0 .8 0 1.6-.1 2.4 0 .2-.7 3.9-.1 1.6.6-2.4-.4 1.5-.4 1.6-.3 1.2-.7 2.4-1.1 3.5-.8 2.6-.2.5.1-.1-.6 1.2-1.2 2.3-1.8 3.4-.2.4-.5.8-.7 1.1-.1.1-.1.2-.2.3-.9 1.4-1.8 2.9-2.7 4.3-4.8 7.5-9.5 14.9-14.3 22.4-18.6 29.1-37.3 58.3-55.9 87.4-26.3 41-52.5 82.1-78.8 123.1-27.8 43.5-55.7 87-83.5 130.6-24 37.5-47.9 74.9-71.9 112.4-14.3 22.3-28.6 44.6-42.8 67-1.4 2.2-2.8 4.3-4.1 6.5-.3.5-.6 1-.9 1.5 0 .1-.1.2-.1.2-.5.7-1 1.5-1.5 2.2 1.8-2.3 0-.1-.5.4-1.1 1-2.1 2-3.1 3-.6.6-2.2 1.2.1-.1-.7.4-1.3.9-2 1.3-1 .6-2.1 1.1-3.2 1.7-.8.4-2.5.7.3-.1-1.9.6-3.7 1.2-5.7 1.7-.8.2-1.5.3-2.3.4 3.8-.6.2-.1-.7-.1-1.1 0-7-.5-3 .1-1.9-.3-3.9-.7-5.7-1.3-.8-.2-1.5-.5-2.2-.8 3.1 1 .6.3-.2-.2-.9-.5-1.8-.9-2.6-1.5-.4-.3-3.6-2.6-.9-.5-1.6-1.3-3-2.8-4.5-4.3-.4-.4-1.8-2.2-.1 0-.6-.8-.9-1.3-1.5-2.2 0-.1-.1-.1-.1-.2-.3-.4-.6-.9-.8-1.3-10.9-17-21.7-34-32.6-51-21.9-34.3-43.9-68.6-65.8-102.9-27.5-43.1-55.1-86.1-82.6-129.2-27.1-42.3-54.2-84.7-81.3-127-21.2-33.1-42.4-66.2-63.5-99.3-9.5-14.8-19.1-29.5-28.4-44.4-1-1.6-1.9-3.2-2.8-4.9 1.3 2.5.3.7.1.1-.3-1-.6-2-.9-3s-.4-2-.7-3c.8 2.7.1 1.5.1.4-.1-2-.1-3.9 0-5.9.1-2.8 0-.1-.1.5.2-1.1.4-2.3.7-3.4.2-1 1.8-5.3 1.1-3.7s1.4-2.6 1.9-3.4 1.2-1.6 1.6-2.4c.9-1.9-2.3 2.3.2-.2 1.4-1.4 2.7-2.8 4.2-4.1-2.3 2.1.7-.4 1.7-1.1 1-.6 2.1-1.1 3.1-1.7.8-.4 2.4-.6-.3.1 2-.5 3.9-1.2 5.9-1.7.8-.2 2.7-.1-.2 0 1 .3 2.3.2 3.6.2 7.8-.1 15.4-6.8 15-15-.4-8-6.6-15.1-15-15-19.8.3-38.9 11.1-47.8 29.2-8.4 17.1-7.9 36.9 2.2 53.2 2.3 3.7 4.7 7.4 7.1 11 15.5 24.3 31.1 48.6 46.6 72.9 25 39.1 50 78.2 75 117.3 28.4 44.3 56.7 88.7 85.1 133 25.8 40.4 51.7 80.8 77.5 121.2 17.4 27.2 34.8 54.5 52.3 81.7 3.6 5.7 7.3 11.4 10.9 17.1 3.5 5.4 7.5 10.5 12.6 14.5 16.5 13.1 38.4 15.5 57.5 6.6 11.7-5.5 19.1-15.3 25.8-25.7 5.1-8 10.3-16.1 15.4-24.1 19.5-30.5 39-61 58.5-91.4 26.9-42 53.8-84.1 80.7-126.1 28.2-44.2 56.5-88.3 84.7-132.5 23.6-36.9 47.2-73.8 70.8-110.7 12.9-20.2 25.8-40.3 38.7-60.5 8.8-13.7 13.3-28.9 9.6-45.3-5.7-25.3-29-41.4-54.2-41.5-19.5 0-38.9 0-58.4 0-40 0-80 0-120 0-50.8 0-101.5 0-152.3 0-52.1 0-104.3 0-156.4 0-44.1 0-88.2 0-132.4 0-26.4 0-52.7 0-79.1 0-3.5 0-7 0-10.6 0-7.8 0-15.4 6.9-15 15 .6 8.2 6.8 15.1 15.2 15.1z"/></g></g></svg>